<svg width="30" height="30" viewBox="0 0 40 40" fill="none" xmlns="http://www.w3.org/2000/svg">
<path fill-rule="evenodd" clip-rule="evenodd" d="M16.6667 30C9.30291 30 3.33337 24.0305 3.33337 16.6667C3.33337 9.30288 9.30291 3.33334 16.6667 3.33334C24.0305 3.33334 30 9.30288 30 16.6667C30 19.7479 28.9549 22.585 27.1998 24.8428L36.1785 33.8215L33.8215 36.1785L24.8428 27.1998C22.585 28.9549 19.7479 30 16.6667 30ZM26.6667 16.6667C26.6667 22.1895 22.1896 26.6667 16.6667 26.6667C11.1439 26.6667 6.66671 22.1895 6.66671 16.6667C6.66671 11.1438 11.1439 6.66668 16.6667 6.66668C22.1896 6.66668 26.6667 11.1438 26.6667 16.6667Z" fill="black"/>
</svg>
