<svg width="35" height="35" viewBox="0 0 35 35" fill="none" xmlns="http://www.w3.org/2000/svg">
<path fill-rule="evenodd" clip-rule="evenodd" d="M23.9711 2.91666C24.926 2.91666 25.8413 3.29789 26.5097 3.97165L31.0319 8.49379C31.7052 9.16707 32.0834 10.0802 32.0834 11.0324C32.0834 11.9846 31.7052 12.8977 31.0319 13.571L14.5214 30.0763C13.5027 31.2513 12.0588 31.9733 10.4046 32.0867H2.91666V30.6284L2.92139 24.4815C3.04563 22.9437 3.76055 21.5138 4.85113 20.5529L21.4308 3.97341C22.1031 3.29703 23.0174 2.91666 23.9711 2.91666ZM10.3016 29.1737C11.0807 29.1185 11.8059 28.756 12.3882 28.0899L23.416 17.0621L17.9409 11.5867L6.84847 22.6765C6.25763 23.199 5.89211 23.9301 5.83332 24.5989V29.1709L10.3016 29.1737ZM20.0035 9.52459L25.4784 14.9997L28.9695 11.5086C29.0958 11.3823 29.1667 11.211 29.1667 11.0324C29.1667 10.8538 29.0958 10.6825 28.9695 10.5562L24.4433 6.02999C24.3184 5.90412 24.1484 5.83332 23.9711 5.83332C23.7938 5.83332 23.6238 5.90412 23.499 6.02999L20.0035 9.52459Z" fill="#949494"/>
</svg>
