<svg width="35" height="35" viewBox="0 0 35 35" fill="none" xmlns="http://www.w3.org/2000/svg">
<path fill-rule="evenodd" clip-rule="evenodd" d="M32.0833 17.4986C32.0833 15.045 30.4348 13.1236 27.7083 13.1236H23.2269L23.2674 13.0132C23.3079 12.9036 23.4221 12.6025 23.5331 12.31L23.5333 12.3096L23.5338 12.3083C23.6317 12.0501 23.7269 11.7991 23.7666 11.6928C24.0438 10.9486 24.2462 10.3489 24.4099 9.75506C24.6573 8.85745 24.7917 8.04878 24.7917 7.29028C24.7917 5.1436 23.4673 3.81029 21.5079 3.23975C20.6242 2.98241 19.8549 2.91515 18.9583 2.91528H18.2591L17.8213 3.46053C17.3266 4.07645 16.3552 5.18651 15.2352 6.46628V6.46633C13.1691 8.82725 10.5976 11.7658 9.58175 13.2452C9.31817 13.167 9.03899 13.1249 8.74999 13.1249H5.83332C4.22249 13.1249 2.91666 14.4308 2.91666 16.0416V29.1666C2.91666 30.7775 4.22249 32.0833 5.83332 32.0833H8.74999C9.75204 32.0833 10.6361 31.578 11.1612 30.8082C11.6036 31.0944 12.0972 31.3331 12.6337 31.5252C13.8621 31.9647 15.0803 32.0996 16.0918 32.0811L26.25 32.082C30.2678 32.082 32.0833 26.1664 32.0833 17.4986ZM13.6163 28.779C12.3258 28.3173 11.6667 27.5643 11.6667 26.2486V16.0416V16.0403C11.6667 15.69 11.7315 15.3798 11.8733 15.0486C12.1281 14.4536 14.4403 11.8157 16.6318 9.31544V9.31538C17.7629 8.02499 18.8618 6.77129 19.6292 5.85401C19.9958 5.88152 20.3414 5.93787 20.6924 6.0401C21.5282 6.28345 21.875 6.63262 21.875 7.29028C21.875 7.75196 21.7815 8.31449 21.5981 8.97992C21.461 9.47717 21.2835 10.0033 21.0334 10.6746C20.9979 10.7699 20.9093 11.0033 20.8152 11.2516L20.8149 11.2522C20.7002 11.5545 20.5774 11.8785 20.5319 12.0015C20.3421 12.5143 20.2173 12.8918 20.1318 13.2349C19.7684 14.6934 20.133 16.0403 21.875 16.0403H27.7083C28.7163 16.0403 29.1667 16.5651 29.1667 17.4986C29.1667 24.4851 27.7303 29.1653 26.25 29.1653H16.0417L15.9878 29.1662C15.3495 29.1777 14.453 29.0784 13.6163 28.779ZM5.83332 29.1666V16.0416H8.74999V29.1666H5.83332Z" fill="#949494"/>
</svg>