<?xml version="1.0" encoding="UTF-8" standalone="no"?>
<svg
   id="Layer_1"
   style="enable-background:new 0 0 64 64;"
   version="1.1"
   viewBox="0 0 64 64"
   xml:space="preserve"
   sodipodi:docname="like_icon_normal.svg"
   inkscape:version="1.1 (c68e22c387, 2021-05-23)"
   xmlns:inkscape="http://www.inkscape.org/namespaces/inkscape"
   xmlns:sodipodi="http://sodipodi.sourceforge.net/DTD/sodipodi-0.dtd"
   xmlns="http://www.w3.org/2000/svg"
   xmlns:svg="http://www.w3.org/2000/svg"><defs
     id="defs12" /><sodipodi:namedview
     id="namedview10"
     pagecolor="#505050"
     bordercolor="#eeeeee"
     borderopacity="1"
     inkscape:pageshadow="0"
     inkscape:pageopacity="0"
     inkscape:pagecheckerboard="0"
     showgrid="false"
     inkscape:zoom="13.640625"
     inkscape:cx="32"
     inkscape:cy="32"
     inkscape:window-width="2560"
     inkscape:window-height="1377"
     inkscape:window-x="-8"
     inkscape:window-y="-8"
     inkscape:window-maximized="1"
     inkscape:current-layer="Layer_1" /><style
     type="text/css"
     id="style2">
	.st0{fill:#134563;}
</style><g
     id="g7"><g
       id="Icon-Like"
       transform="translate(78.000000, 528.000000)"><path
         class="st0"
         d="M-22-495.6c0-3.2-2.5-4.9-6-4.9h-10.1c0.7-2.7,1.1-5.3,1.1-7.5c0-8.7-2.4-10.5-4.5-10.5     c-1.4,0-2.4,0.1-3.8,1c-0.4,0.2-0.6,0.6-0.7,1l-1.5,8.1c-1.6,4.3-5.7,8-9,10.5v21.4c1.1,0,2.5,0.6,3.8,1.3     c1.6,0.8,3.3,1.6,5.2,1.6h14.3c3,0,5.2-2.4,5.2-4.5c0-0.4,0-0.8-0.1-1.1c1.9-0.7,3.1-2.3,3.1-4.1c0-0.9-0.2-1.7-0.5-2.3     c1.1-0.8,2.3-2.1,2.3-3.7c0-0.8-0.4-1.8-1-2.5C-22.9-492.8-22-494.2-22-495.6L-22-495.6z M-25.1-495.6c0,1.9-2,2.1-2.3,3     c-0.3,1,1.2,1.4,1.2,3.2c0,1.9-2.3,1.9-2.6,2.8c-0.4,1.1,0.7,1.5,0.7,3.3c0,0.1,0,0.2,0,0.3c-0.3,1.5-2.6,1.6-3,2.2     c-0.4,0.7,0.1,1.1,0.1,2.7c0,0.9-1,1.5-2.2,1.5h-14.3c-1.1,0-2.5-0.6-3.8-1.3c-1.2-0.6-2.4-1.2-3.7-1.5v-15.9     c3.7-2.8,8.5-7.1,10.4-12.3c0-0.1,0-0.2,0.1-0.2l1.4-7.5c0.5-0.2,0.9-0.2,1.7-0.2c0.3,0,1.5,1.8,1.5,7.5c0,2.2-0.4,4.7-1.2,7.5     h-0.4c-0.8,0-1.5,0.7-1.5,1.5c0,0.8,0.7,1.5,1.5,1.5H-28C-26.5-497.5-25.1-496.8-25.1-495.6L-25.1-495.6z"
         id="Fill-4_2_" /><path
         class="st0"
         d="M-58-473.5h-9c-1.7,0-3-1.3-3-3v-21c0-1.7,1.3-3,3-3h9c1.7,0,3,1.3,3,3v21     C-55-474.8-56.3-473.5-58-473.5L-58-473.5z M-67-497.5v21h9l0-21H-67L-67-497.5z M-70-518.5"
         id="Fill-6_2_" /></g></g><path
     style="fill:#000000;stroke:none;stroke-width:0.0733104"
     d="M 10.218921,54.363384 C 9.1380194,54.065302 8.3401653,53.223582 8.1099201,52.138431 8.051021,51.860838 8.0274914,48.668674 8.0274914,40.955666 c 0,-11.736535 -0.01616,-11.252843 0.399639,-11.961393 0.27333,-0.465773 0.7709118,-0.915893 1.2865008,-1.163789 l 0.4765178,-0.229109 h 5.315006 5.315005 l 0.421729,0.197636 c 0.479376,0.224652 1.169142,0.840114 1.30258,1.16226 0.04927,0.118953 0.112695,0.216278 0.140941,0.216278 0.0808,0 1.124217,-0.88301 2.166924,-1.833795 2.435987,-2.221238 4.431962,-4.823037 5.384097,-7.018295 0.257854,-0.594513 0.351747,-1.022583 1.02652,-4.680061 0.408488,-2.214133 0.793058,-4.180859 0.854599,-4.370502 0.14414,-0.444176 0.436748,-0.697287 1.291184,-1.116897 0.99617,-0.4892159 1.432382,-0.5828504 2.733305,-0.5867126 0.962797,-0.00286 1.147831,0.016429 1.486738,0.1549713 1.660127,0.6786483 2.684099,2.7491643 3.135761,6.3406423 0.183947,1.462688 0.222215,4.69434 0.07278,6.146158 -0.139665,1.356916 -0.44477,3.127322 -0.760915,4.415313 -0.116069,0.472866 -0.1938,0.87699 -0.172738,0.898052 0.02106,0.02106 2.519199,0.0383 5.551412,0.0383 6.01824,0 6.171591,0.0089 7.350501,0.426072 0.777508,0.275139 1.33043,0.613991 1.876679,1.150102 1.266153,1.242658 1.647315,3.364451 0.879187,4.894126 -0.306042,0.609461 -0.790636,1.246769 -1.309607,1.722312 l -0.47977,0.439621 0.302544,0.453063 c 0.805119,1.205676 0.878932,2.668473 0.192624,3.817339 -0.287421,0.481139 -0.869473,1.152676 -1.327429,1.53151 l -0.457174,0.378188 0.208634,0.623766 c 0.274343,0.820217 0.342577,1.83176 0.172234,2.553306 -0.286383,1.213069 -1.163786,2.30935 -2.322497,2.901869 l -0.629671,0.32199 0.03424,0.711186 c 0.02106,0.437293 -0.0013,0.862741 -0.05802,1.104709 -0.296537,1.264738 -1.345531,2.523953 -2.644147,3.174042 -1.242523,0.622009 -0.746242,0.591759 -9.708473,0.591759 -7.866934,0 -7.921775,-10e-4 -8.582519,-0.158832 -0.976794,-0.233305 -1.944779,-0.614085 -3.550356,-1.396619 -1.501411,-0.731764 -2.316505,-1.07391 -2.414336,-1.013447 -0.03214,0.01986 -0.07594,0.166651 -0.09734,0.326195 -0.139734,1.041796 -1.116287,2.032072 -2.23878,2.27024 -0.581896,0.123466 -9.976375,0.102005 -10.432683,-0.02383 z m 9.83148,-13.346202 V 30.497136 h -4.545246 -4.545247 v 10.520046 10.520046 h 4.545247 4.545246 z m 25.218786,10.370493 c 0.613246,-0.09669 1.218401,-0.400114 1.495082,-0.749625 0.280908,-0.354851 0.324402,-0.857967 0.162524,-1.880021 -0.176893,-1.116857 -0.161984,-1.372974 0.09383,-1.611944 0.116557,-0.108881 0.454701,-0.291499 0.751432,-0.405818 1.320344,-0.508682 1.956212,-0.988808 2.121245,-1.601695 0.143409,-0.532582 -0.06174,-1.571098 -0.465828,-2.358107 -0.179673,-0.349936 -0.228697,-0.539329 -0.231997,-0.896259 -0.0056,-0.600647 0.119945,-0.757766 0.988949,-1.238134 1.266529,-0.70011 1.61855,-1.146592 1.61855,-2.05287 0,-0.704577 -0.164365,-1.157042 -0.702516,-1.93388 -0.717891,-1.036297 -0.67349,-1.354954 0.278627,-1.999693 1.082032,-0.732712 1.520187,-1.358169 1.524098,-2.175611 0.0041,-0.855753 -0.457101,-1.407354 -1.51258,-1.809092 -0.349105,-0.132877 -0.720729,-0.141301 -7.80756,-0.176981 l -7.441008,-0.03746 -0.346276,-0.203552 c -1.311566,-0.77098 -0.782453,-2.69221 0.741443,-2.69221 0.422622,0 0.376252,0.0859 0.732101,-1.356242 0.712676,-2.888263 0.95325,-5.164724 0.818215,-7.742473 -0.111659,-2.131514 -0.267759,-3.222373 -0.638751,-4.463713 -0.208529,-0.697742 -0.406869,-1.129575 -0.631336,-1.37457 -0.12553,-0.137012 -0.227973,-0.164949 -0.604858,-0.164949 -0.483188,0 -1.20259,0.113037 -1.292665,0.203112 -0.02987,0.02987 -0.351451,1.654123 -0.714621,3.609449 -0.36317,1.955325 -0.730718,3.76957 -0.816773,4.031654 -0.532632,1.62215 -1.788318,3.77182 -3.340176,5.718213 -1.414106,1.773619 -4.474267,4.691644 -6.546281,6.242225 l -0.519888,0.389054 0.01865,7.984168 0.01865,7.984167 0.733104,0.236527 c 0.898981,0.290046 1.570104,0.581068 3.042383,1.319283 0.624971,0.313367 1.424117,0.68097 1.77588,0.816895 1.188997,0.459441 1.055651,0.452637 9.000752,0.459266 4.602592,0.0038 7.39387,-0.02122 7.697595,-0.06911 z"
     id="path51" /><path
     style="fill:#000000;stroke-width:0.0733104"
     d="m 12.682703,54.397373 -2.492554,-0.03931 -0.4059398,-0.19874 C 8.9796687,53.765433 8.4459824,53.141146 8.209032,52.316735 8.0955912,51.922045 8.0854504,51.004277 8.085906,41.173551 8.0862557,33.620312 8.110702,30.299265 8.1687875,29.913895 8.2169031,29.59467 8.3255358,29.240417 8.4299451,29.062256 8.6749005,28.644271 9.3386401,28.053903 9.8192285,27.826548 L 10.217725,27.63803 h 5.305151 5.305151 l 0.364442,0.181609 c 0.437307,0.217919 1.165384,0.850913 1.317846,1.145743 0.06034,0.116692 0.150693,0.212167 0.200775,0.212167 0.171712,0 1.848218,-1.485695 3.133717,-2.777053 1.923246,-1.932012 3.224863,-3.647423 4.115821,-5.424272 0.508914,-1.014935 0.589228,-1.337128 1.380756,-5.539111 0.729036,-3.870228 0.777283,-4.100532 0.914717,-4.3663 0.143455,-0.277413 0.451128,-0.503743 1.178266,-0.866756 1.001051,-0.4997608 1.296116,-0.5610563 2.707672,-0.5624796 l 1.246277,-0.00126 0.457179,0.2388034 c 1.406769,0.7348152 2.34449,2.6273692 2.814922,5.6812172 0.117409,0.76217 0.158143,1.475993 0.189289,3.317093 0.0522,3.08559 -0.06277,4.25728 -0.71506,7.287223 -0.159737,0.741994 -0.290431,1.355295 -0.290431,1.362892 0,0.0076 2.498004,0.0373 5.55112,0.066 3.053116,0.0287 5.799508,0.08359 6.103093,0.121977 0.303585,0.03839 0.766406,0.139744 1.028491,0.225241 2.063543,0.673165 3.25644,2.132688 3.35557,4.105577 0.06906,1.374427 -0.325978,2.284181 -1.545087,3.558276 l -0.573044,0.598891 0.329905,0.574076 c 0.814942,1.418104 0.792257,2.740138 -0.06771,3.946356 -0.356347,0.499821 -0.890854,1.076585 -1.304007,1.407099 l -0.280896,0.22471 0.204645,0.613649 c 0.184591,0.553517 0.204782,0.714221 0.206046,1.639995 0.0013,0.956799 -0.01226,1.058635 -0.200132,1.502864 -0.422531,0.999056 -1.144978,1.763604 -2.228325,2.358179 l -0.536136,0.294248 v 0.874931 c 0,0.685292 -0.03159,0.964821 -0.145766,1.28966 -0.463604,1.319036 -1.796698,2.615846 -3.196619,3.109612 -0.723071,0.255034 -2.113914,0.292574 -9.926801,0.267924 l -7.367698,-0.02325 -0.631423,-0.196971 c -0.931196,-0.290484 -1.613151,-0.572918 -3.34272,-1.384399 -1.505467,-0.706337 -2.073834,-0.945037 -2.250223,-0.945037 -0.04648,0 -0.144013,0.230981 -0.216738,0.513291 -0.286627,1.112659 -1.322416,2.009828 -2.416633,2.093215 -0.703955,0.05365 -5.200093,0.0733 -7.710419,0.03371 z M 20.050401,41.017182 V 30.497136 h -4.545246 -4.545247 v 10.520046 10.520046 h 4.545247 4.545246 z m 25.380126,10.364307 c 0.710179,-0.150685 1.260479,-0.50366 1.496359,-0.959802 0.124177,-0.240134 0.123888,-0.28024 -0.01714,-2.380426 -0.04455,-0.663412 -0.04225,-0.676269 0.152831,-0.857068 0.10893,-0.100954 0.451011,-0.287623 0.760178,-0.414822 1.162342,-0.478212 1.874436,-0.991951 2.060622,-1.486629 0.187786,-0.498933 -0.0073,-1.696855 -0.403844,-2.479324 -0.26455,-0.522064 -0.317962,-1.183684 -0.120528,-1.492994 0.08368,-0.131095 0.448313,-0.402162 0.902716,-0.671075 1.264423,-0.748279 1.545527,-1.117759 1.552384,-2.040439 0.0052,-0.695463 -0.08819,-0.978744 -0.604788,-1.835216 -0.567086,-0.940173 -0.632096,-1.131059 -0.483237,-1.418921 0.0625,-0.120867 0.440422,-0.470242 0.839821,-0.776388 1.077469,-0.8259 1.47913,-1.527574 1.350411,-2.359076 -0.101786,-0.657514 -0.451259,-1.063705 -1.232465,-1.432488 l -0.513173,-0.242253 -4.765178,-0.04805 c -2.620847,-0.02642 -6.004882,-0.05134 -7.520077,-0.05537 l -2.7549,-0.0073 -0.339572,-0.224923 c -0.411167,-0.272346 -0.62336,-0.596455 -0.685021,-1.04632 -0.03795,-0.276893 -0.01107,-0.409099 0.150255,-0.738826 0.241756,-0.494133 0.552807,-0.702174 1.21099,-0.809951 l 0.481281,-0.07881 0.166039,-0.582482 c 0.231248,-0.811241 0.646679,-2.78268 0.780335,-3.70311 0.378718,-2.608043 0.323188,-5.776478 -0.141976,-8.100801 -0.306618,-1.532113 -0.734014,-2.554462 -1.107036,-2.648085 -0.217426,-0.05457 -1.472623,0.0055 -1.650994,0.07905 -0.09321,0.03842 -0.207155,0.497525 -0.49785,2.005879 -0.957894,4.970315 -1.114027,5.689204 -1.372182,6.318029 -0.84846,2.066715 -2.438636,4.449698 -4.337486,6.500005 -1.421408,1.534784 -4.036522,3.91039 -5.380814,4.888007 l -0.419398,0.305 -0.0021,8.034215 -0.0021,8.034215 0.311569,0.092 c 0.772477,0.228085 1.827721,0.668209 3.353952,1.398875 1.944473,0.930893 2.557175,1.161218 3.298969,1.240136 0.903616,0.09613 15.028306,0.09209 15.483219,-0.0044 z"
     id="path127" /></svg>
