<svg width="35" height="35" viewBox="0 0 35 35" fill="none" xmlns="http://www.w3.org/2000/svg">
<path fill-rule="evenodd" clip-rule="evenodd" d="M32.0833 17.4987C32.0833 15.0451 30.4348 13.1237 27.7083 13.1237H23.2269L23.2674 13.0133C23.3079 12.9036 23.4221 12.6025 23.5331 12.3101L23.5333 12.3097L23.5338 12.3084C23.6317 12.0502 23.7269 11.7991 23.7666 11.6929C24.0438 10.9487 24.2462 10.349 24.4099 9.75515C24.6573 8.85754 24.7917 8.04887 24.7917 7.29038C24.7917 5.14369 23.4673 3.81038 21.5079 3.23984C20.6242 2.9825 19.8549 2.91524 18.9583 2.91537H18.2591L17.8213 3.46062C17.3266 4.07654 16.3552 5.1866 15.2352 6.46637V6.46642C13.1691 8.82734 10.5976 11.7659 9.58175 13.2453C9.31817 13.1671 9.03899 13.125 8.74999 13.125H5.83332C4.22249 13.125 2.91666 14.4308 2.91666 16.0417V29.1667C2.91666 30.7776 4.22249 32.0834 5.83332 32.0834H8.74999C9.75204 32.0834 10.6361 31.578 11.1612 30.8083C11.6036 31.0945 12.0972 31.3332 12.6337 31.5253C13.8621 31.9648 15.0803 32.0997 16.0918 32.0812L26.25 32.082C30.2678 32.082 32.0833 26.1665 32.0833 17.4987ZM13.6163 28.7791C12.3258 28.3174 11.6667 27.5644 11.6667 26.2487V16.0417V16.0404C11.6667 15.6901 11.7315 15.3799 11.8733 15.0487C12.1281 14.4537 14.4403 11.8158 16.6318 9.31553V9.31548C17.7629 8.02508 18.8618 6.77138 19.6292 5.85411C19.9958 5.88161 20.3414 5.93796 20.6924 6.04019C21.5282 6.28354 21.875 6.63271 21.875 7.29038C21.875 7.75205 21.7815 8.31458 21.5981 8.98001C21.461 9.47726 21.2835 10.0034 21.0334 10.6747C20.9979 10.77 20.9093 11.0034 20.8152 11.2517L20.8149 11.2523C20.7002 11.5546 20.5774 11.8786 20.5319 12.0016C20.3421 12.5144 20.2173 12.8919 20.1318 13.235C19.7684 14.6935 20.133 16.0404 21.875 16.0404H27.7083C28.7163 16.0404 29.1667 16.5652 29.1667 17.4987C29.1667 24.4851 27.7303 29.1654 26.25 29.1654H16.0417L15.9878 29.1663C15.3495 29.1778 14.453 29.0785 13.6163 28.7791ZM5.83332 29.1667V16.0417H8.74999V29.1667H5.83332Z" fill="#949494"/>
<path d="M10 14C10 14 40.5 8.50001 27.5 29.2381H10V14Z" fill="#949494"/>
<path d="M22.5 6L22 14.5L9.5 17L18.5 5.5L22.5 6Z" fill="#949494"/>
</svg>
